<?xml version="1.0" encoding="utf-8"?>
<!-- Generator: Adobe Illustrator 16.0.0, SVG Export Plug-In . SVG Version: 6.00 Build 0)  -->
<!DOCTYPE svg PUBLIC "-//W3C//DTD SVG 1.1//EN" "http://www.w3.org/Graphics/SVG/1.1/DTD/svg11.dtd">
<svg version="1.1" id="Layer_1" xmlns="http://www.w3.org/2000/svg" xmlns:xlink="http://www.w3.org/1999/xlink" x="0px" y="0px"
	 width="800px" height="800px" viewBox="0 0 800 800" enable-background="new 0 0 800 800" xml:space="preserve">
<path fill="none" stroke="#905BA1" stroke-width="20" stroke-miterlimit="10" d="M750,400c0,193.288-156.712,350-350,350
	C206.71,750,50,593.288,50,400C50,206.71,206.71,50,400,50C593.288,50,750,206.71,750,400z"/>
<path fill="#905BA1" d="M417.578,153.865c0-7.138,5.824-12.924,13.01-12.924c7.184,0,13.014,5.786,13.014,12.924
	c0,7.145-5.828,12.927-13.014,12.927S417.578,161.01,417.578,153.865z M418.359,204.707c0.014-0.158,0.057-0.304,0.08-0.465
	c0.373-8.567,0.785-16.957,1.021-21.584c-3.258,4.415-5.246,11.829-5.752,21.769c-0.121,2.438-2.149,4.328-4.582,4.328
	c-0.072,0-0.151,0-0.231-0.003c-2.533-0.128-4.479-2.272-4.351-4.787c0.429-8.376,1.64-17.329,6.074-24.649
	c1.043-1.721,2.256-3.31,3.688-4.732c1.59-1.582,3.444-3.035,5.415-4.134c0.854-0.474,1.752-0.857,2.675-1.172
	c2.243-0.764,4.61-1.136,6.978-1.214l-4.209,35.08l5.334,5.438l5.332-5.438l-4.205-35.08c2.408,0.082,4.83,0.464,7.104,1.26
	c0.921,0.322,1.817,0.712,2.663,1.195c1.525,0.868,3.018,2,4.326,3.158c6.482,5.705,9.996,15.613,10.734,30.288
	c0.131,2.515-1.816,4.659-4.353,4.787c-0.08,0.006-0.159,0.006-0.229,0.006c-2.433,0-4.461-1.895-4.584-4.331
	c-0.504-9.939-2.492-17.353-5.752-21.769c0.235,4.627,0.648,13.017,1.021,21.584c0.023,0.161,0.066,0.307,0.08,0.465l3.384,47.551
	c6.2,1.71,6.952,6.654-1.868,8.956c-4.438,1.159-8.898,1.731-13.475,1.731c-0.032,0-0.062-0.003-0.27-0.003
	c-0.033,0-0.064,0.003-0.097,0.003c-4.575,0-9.034-0.572-13.476-1.731c-8.819-2.302-4.813-7.898-1.869-8.956 M426.98,250.349
	l7.043,0.029l-2.479-33.874c-0.365-0.102-0.715-0.167-1.045-0.193c-0.33,0.026-0.68,0.092-1.045,0.193L426.98,250.349z"/>
<path fill="#905BA1" d="M449.096,140.647c0-7.137,5.826-12.923,13.012-12.923s13.014,5.786,13.014,12.923
	c0,7.146-5.828,12.928-13.014,12.928S449.096,147.793,449.096,140.647z M449.877,191.491c0.014-0.16,0.057-0.306,0.08-0.465
	c0.373-8.568,0.785-16.958,1.021-21.585c-3.26,4.414-5.246,11.829-5.754,21.768c-0.119,2.438-2.148,4.329-4.578,4.329
	c-0.074,0-0.152,0-0.232-0.004c-2.535-0.126-4.482-2.271-4.352-4.786c0.43-8.376,1.641-17.329,6.072-24.649
	c1.043-1.721,2.256-3.31,3.689-4.732c1.592-1.582,3.443-3.035,5.416-4.134c0.854-0.474,1.754-0.857,2.674-1.172
	c2.244-0.764,4.613-1.136,6.979-1.214l-4.21,35.08l5.332,5.439l5.334-5.439l-4.204-35.08c2.407,0.082,4.827,0.464,7.104,1.261
	c0.92,0.321,1.82,0.711,2.666,1.194c1.522,0.868,3.016,2,4.326,3.158c6.479,5.705,9.994,15.613,10.73,30.289
	c0.134,2.514-1.814,4.659-4.352,4.785c-0.078,0.008-0.158,0.008-0.23,0.008c-2.43,0-4.461-1.895-4.582-4.333
	c-0.506-9.938-2.493-17.352-5.752-21.768c0.234,4.627,0.648,13.017,1.021,21.585c0.021,0.159,0.064,0.305,0.08,0.465l3.385,47.551
	c6.201,1.706,6.951,6.65-1.871,8.956c-4.438,1.159-8.896,1.731-13.473,1.731c-0.033,0-0.062-0.003-0.271-0.003
	c-0.033,0-0.062,0.003-0.096,0.003c-4.574,0-9.035-0.572-13.473-1.734c-8.822-2.303-4.816-7.896-1.871-8.953 M458.498,237.131
	l7.043,0.033l-2.477-33.878c-0.367-0.102-0.717-0.167-1.049-0.193c-0.326,0.026-0.678,0.092-1.043,0.193L458.498,237.131z"/>
<path fill="#905BA1" d="M387.077,140.647c0-7.138,5.826-12.924,13.011-12.924c7.184,0,13.014,5.786,13.014,12.924
	c0,7.145-5.83,12.927-13.014,12.927C392.903,153.574,387.077,147.792,387.077,140.647z M387.859,191.49
	c0.014-0.159,0.056-0.306,0.08-0.465c0.373-8.568,0.786-16.958,1.021-21.585c-3.258,4.415-5.246,11.829-5.752,21.768
	c-0.121,2.438-2.15,4.33-4.581,4.33c-0.073,0-0.153,0-0.232-0.005c-2.534-0.126-4.481-2.271-4.351-4.786
	c0.429-8.376,1.64-17.329,6.075-24.649c1.042-1.721,2.256-3.31,3.689-4.732c1.591-1.582,3.445-3.035,5.416-4.134
	c0.853-0.474,1.753-0.857,2.674-1.172c2.244-0.764,4.612-1.136,6.977-1.214l-4.208,35.081l5.333,5.438l5.332-5.438l-4.205-35.081
	c2.408,0.083,4.83,0.464,7.105,1.261c0.92,0.321,1.816,0.711,2.664,1.195c1.523,0.867,3.016,1.999,4.326,3.157
	c6.48,5.705,9.994,15.613,10.732,30.289c0.131,2.514-1.816,4.659-4.354,4.785c-0.078,0.008-0.158,0.008-0.229,0.008
	c-2.434,0-4.461-1.895-4.584-4.333c-0.504-9.938-2.492-17.352-5.752-21.768c0.234,4.627,0.648,13.017,1.021,21.585
	c0.024,0.159,0.067,0.306,0.082,0.465l3.383,47.552c6.2,1.706,6.95,6.65-1.871,8.956c-4.437,1.159-8.896,1.731-13.47,1.731
	c-0.033,0-0.063-0.003-0.27-0.003c-0.033,0-0.064,0.003-0.095,0.003c-4.575,0-9.036-0.572-13.474-1.734
	c-8.821-2.303-4.816-7.896-1.871-8.953 M396.48,237.131l7.043,0.033l-2.479-33.878c-0.367-0.102-0.714-0.167-1.045-0.193
	c-0.33,0.026-0.68,0.092-1.044,0.193L396.48,237.131z"/>
<path fill="#905BA1" d="M355.559,153.864c0-7.138,5.827-12.924,13.011-12.924c7.185,0,13.014,5.786,13.014,12.924
	c0,7.145-5.829,12.927-13.014,12.927S355.559,161.009,355.559,153.864z M356.341,204.707c0.014-0.159,0.056-0.306,0.08-0.465
	c0.374-8.567,0.786-16.958,1.022-21.584c-3.259,4.414-5.247,11.828-5.752,21.768c-0.121,2.438-2.151,4.329-4.582,4.329
	c-0.073,0-0.152,0-0.232-0.005c-2.534-0.126-4.481-2.271-4.351-4.786c0.429-8.376,1.64-17.329,6.075-24.648
	c1.042-1.722,2.256-3.311,3.689-4.733c1.591-1.582,3.445-3.035,5.416-4.134c0.854-0.474,1.753-0.857,2.674-1.172
	c2.245-0.764,4.612-1.135,6.978-1.214l-4.209,35.081l5.333,5.438l5.333-5.438l-4.206-35.081c2.408,0.083,4.83,0.464,7.105,1.261
	c0.919,0.321,1.818,0.711,2.665,1.195c1.525,0.867,3.016,1.999,4.326,3.157c6.482,5.705,9.995,15.613,10.733,30.289
	c0.131,2.515-1.817,4.659-4.352,4.785c-0.079,0.008-0.159,0.008-0.231,0.008c-2.43,0-4.46-1.895-4.583-4.332
	c-0.505-9.939-2.493-17.353-5.752-21.768c0.236,4.626,0.649,13.017,1.022,21.584c0.024,0.159,0.067,0.306,0.081,0.465l3.383,47.551
	c6.202,1.708,6.952,6.653-1.87,8.956c-4.437,1.159-8.896,1.731-13.473,1.731c-0.033,0-0.062-0.003-0.27-0.003
	c-0.033,0-0.064,0.003-0.095,0.003c-4.575,0-9.036-0.572-13.474-1.732c-8.821-2.302-4.815-7.897-1.871-8.955 M364.962,250.348
	l7.043,0.03l-2.479-33.876c-0.366-0.1-0.715-0.166-1.045-0.193c-0.329,0.027-0.679,0.094-1.044,0.193L364.962,250.348z"/>
<path fill="#905BA1" d="M387.077,140.647c0-7.138,5.826-12.924,13.011-12.924c7.184,0,13.014,5.786,13.014,12.924
	c0,7.145-5.83,12.927-13.014,12.927C392.903,153.574,387.077,147.792,387.077,140.647z M387.859,191.49
	c0.014-0.159,0.056-0.306,0.08-0.465c0.373-8.568,0.786-16.958,1.021-21.585c-3.258,4.415-5.246,11.829-5.752,21.768
	c-0.121,2.438-2.15,4.33-4.581,4.33c-0.073,0-0.153,0-0.232-0.005c-2.534-0.126-4.481-2.271-4.351-4.786
	c0.429-8.376,1.64-17.329,6.075-24.649c1.042-1.721,2.256-3.31,3.689-4.732c1.591-1.582,3.445-3.035,5.416-4.134
	c0.853-0.474,1.753-0.857,2.674-1.172c2.244-0.764,4.612-1.136,6.977-1.214l-4.208,35.081l5.333,5.438l5.332-5.438l-4.205-35.081
	c2.408,0.083,4.83,0.464,7.105,1.261c0.92,0.321,1.816,0.711,2.664,1.195c1.523,0.867,3.016,1.999,4.326,3.157
	c6.48,5.705,9.994,15.613,10.732,30.289c0.131,2.514-1.816,4.659-4.354,4.785c-0.078,0.008-0.158,0.008-0.229,0.008
	c-2.434,0-4.461-1.895-4.584-4.333c-0.504-9.938-2.492-17.352-5.752-21.768c0.234,4.627,0.648,13.017,1.021,21.585
	c0.024,0.159,0.067,0.306,0.082,0.465l3.383,47.552c6.2,1.706,6.95,6.65-1.871,8.956c-4.437,1.159-8.896,1.731-13.47,1.731
	c-0.033,0-0.063-0.003-0.27-0.003c-0.033,0-0.064,0.003-0.095,0.003c-4.575,0-9.036-0.572-13.474-1.734
	c-8.821-2.303-4.816-7.896-1.871-8.953 M396.48,237.129l7.043,0.033l-2.479-33.876c-0.367-0.102-0.714-0.167-1.045-0.193
	c-0.33,0.026-0.68,0.092-1.044,0.193L396.48,237.129z"/>
<path fill="#905BA1" d="M479.596,153.865c0-7.138,5.826-12.924,13.012-12.924s13.014,5.786,13.014,12.924
	c0,7.145-5.828,12.927-13.014,12.927S479.596,161.01,479.596,153.865z M480.379,204.707c0.014-0.158,0.055-0.304,0.078-0.465
	c0.375-8.567,0.787-16.957,1.023-21.584c-3.262,4.415-5.246,11.829-5.756,21.769c-0.117,2.438-2.148,4.328-4.578,4.328
	c-0.074,0-0.152,0-0.232-0.003c-2.535-0.128-4.482-2.272-4.352-4.787c0.43-8.376,1.641-17.329,6.074-24.649
	c1.041-1.721,2.258-3.31,3.688-4.732c1.592-1.582,3.444-3.035,5.416-4.134c0.854-0.474,1.754-0.857,2.674-1.172
	c2.246-0.764,4.613-1.136,6.979-1.214l-4.21,35.08l5.335,5.438l5.331-5.438l-4.204-35.08c2.407,0.082,4.829,0.464,7.104,1.26
	c0.918,0.322,1.818,0.712,2.664,1.195c1.525,0.868,3.016,2,4.326,3.158c6.48,5.705,9.994,15.613,10.732,30.288
	c0.133,2.515-1.816,4.659-4.352,4.787c-0.08,0.006-0.16,0.006-0.232,0.006c-2.43,0-4.461-1.895-4.581-4.331
	c-0.507-9.939-2.491-17.353-5.753-21.769c0.236,4.627,0.65,13.017,1.021,21.584c0.021,0.161,0.067,0.307,0.08,0.465l3.385,47.551
	c6.201,1.71,6.951,6.654-1.871,8.956c-4.436,1.159-8.896,1.731-13.473,1.731c-0.033,0-0.062-0.003-0.271-0.003
	c-0.032,0-0.062,0.003-0.096,0.003c-4.574,0-9.035-0.572-13.473-1.731c-8.822-2.302-4.816-7.898-1.871-8.956 M489,250.349
	l7.043,0.029l-2.479-33.874c-0.367-0.102-0.717-0.167-1.047-0.193c-0.328,0.026-0.68,0.092-1.045,0.193L489,250.349z"/>
<path fill="#905BA1" d="M511.113,140.647c0-7.137,5.828-12.923,13.012-12.923s13.014,5.786,13.014,12.923
	c0,7.146-5.83,12.928-13.014,12.928S511.113,147.793,511.113,140.647z M511.896,191.491c0.014-0.16,0.057-0.306,0.078-0.465
	c0.373-8.568,0.785-16.958,1.021-21.585c-3.258,4.414-5.246,11.829-5.752,21.768c-0.121,2.438-2.15,4.329-4.582,4.329
	c-0.072,0-0.152,0-0.232-0.004c-2.531-0.126-4.479-2.271-4.35-4.786c0.428-8.376,1.641-17.329,6.074-24.649
	c1.043-1.721,2.256-3.31,3.688-4.732c1.59-1.582,3.445-3.035,5.416-4.134c0.854-0.474,1.754-0.857,2.674-1.172
	c2.244-0.764,4.611-1.136,6.979-1.214l-4.209,35.08l5.334,5.439l5.332-5.439l-4.205-35.08c2.408,0.082,4.83,0.464,7.104,1.261
	c0.92,0.321,1.818,0.711,2.664,1.194c1.525,0.868,3.018,2,4.326,3.158c6.482,5.705,9.996,15.613,10.734,30.289
	c0.131,2.514-1.816,4.659-4.354,4.785c-0.078,0.008-0.159,0.008-0.229,0.008c-2.434,0-4.461-1.895-4.584-4.333
	c-0.504-9.938-2.492-17.352-5.752-21.768c0.234,4.627,0.648,13.017,1.021,21.585c0.025,0.159,0.068,0.305,0.082,0.465l3.383,47.551
	c6.201,1.706,6.953,6.65-1.87,8.956c-4.437,1.159-8.896,1.731-13.472,1.731c-0.033,0-0.062-0.003-0.27-0.003
	c-0.033,0-0.064,0.003-0.098,0.003c-4.575,0-9.034-0.572-13.475-1.734c-8.82-2.303-4.814-7.896-1.869-8.953 M520.518,237.131
	l7.043,0.033l-2.479-33.878c-0.365-0.102-0.715-0.167-1.045-0.193c-0.33,0.026-0.68,0.092-1.045,0.193L520.518,237.131z"/>
<path fill="#905BA1" d="M449.096,140.647c0-7.138,5.826-12.924,13.012-12.924s13.014,5.786,13.014,12.924
	c0,7.145-5.828,12.927-13.014,12.927S449.096,147.792,449.096,140.647z M449.877,191.49c0.014-0.159,0.057-0.306,0.08-0.465
	c0.373-8.568,0.785-16.958,1.021-21.585c-3.26,4.415-5.246,11.829-5.754,21.768c-0.119,2.438-2.148,4.33-4.578,4.33
	c-0.074,0-0.152,0-0.232-0.005c-2.535-0.126-4.482-2.271-4.352-4.786c0.43-8.376,1.641-17.329,6.072-24.649
	c1.043-1.721,2.256-3.31,3.689-4.732c1.592-1.582,3.443-3.035,5.416-4.134c0.854-0.474,1.754-0.857,2.674-1.172
	c2.244-0.764,4.613-1.136,6.979-1.214l-4.21,35.081l5.332,5.438l5.334-5.438l-4.204-35.081c2.407,0.083,4.827,0.464,7.104,1.261
	c0.92,0.321,1.82,0.711,2.666,1.195c1.522,0.867,3.016,1.999,4.326,3.157c6.479,5.705,9.994,15.613,10.73,30.289
	c0.134,2.514-1.814,4.659-4.352,4.785c-0.078,0.008-0.158,0.008-0.23,0.008c-2.43,0-4.461-1.895-4.582-4.333
	c-0.506-9.938-2.493-17.352-5.752-21.768c0.234,4.627,0.648,13.017,1.021,21.585c0.021,0.159,0.064,0.306,0.08,0.465l3.385,47.552
	c6.201,1.706,6.951,6.65-1.871,8.956c-4.438,1.159-8.896,1.731-13.473,1.731c-0.033,0-0.062-0.003-0.271-0.003
	c-0.033,0-0.062,0.003-0.096,0.003c-4.574,0-9.035-0.572-13.473-1.734c-8.822-2.303-4.816-7.896-1.871-8.953 M458.498,237.129
	l7.043,0.033l-2.477-33.876c-0.367-0.102-0.717-0.167-1.049-0.193c-0.326,0.026-0.678,0.092-1.043,0.193L458.498,237.129z"/>
<path fill="#905BA1" d="M325.059,140.646c0-7.138,5.826-12.924,13.011-12.924c7.184,0,13.013,5.786,13.013,12.924
	c0,7.145-5.829,12.927-13.013,12.927C330.884,153.573,325.059,147.791,325.059,140.646z M325.841,191.489
	c0.014-0.159,0.056-0.306,0.08-0.465c0.373-8.567,0.785-16.958,1.021-21.584c-3.259,4.414-5.246,11.828-5.753,21.768
	c-0.12,2.438-2.15,4.329-4.581,4.329c-0.073,0-0.153,0-0.233-0.005c-2.534-0.126-4.481-2.271-4.351-4.786
	c0.429-8.376,1.641-17.329,6.075-24.648c1.042-1.722,2.256-3.311,3.688-4.732c1.592-1.583,3.446-3.035,5.416-4.135
	c0.854-0.474,1.754-0.856,2.674-1.171c2.245-0.765,4.613-1.136,6.978-1.215l-4.209,35.081l5.334,5.438l5.333-5.438l-4.206-35.081
	c2.408,0.083,4.83,0.464,7.105,1.261c0.919,0.321,1.819,0.711,2.665,1.195c1.525,0.867,3.016,1.999,4.327,3.157
	c6.481,5.706,9.995,15.614,10.733,30.29c0.131,2.514-1.817,4.658-4.352,4.784c-0.079,0.008-0.159,0.008-0.23,0.008
	c-2.431,0-4.461-1.895-4.583-4.332c-0.505-9.939-2.493-17.353-5.751-21.768c0.235,4.626,0.649,13.017,1.021,21.584
	c0.024,0.159,0.067,0.306,0.081,0.465l3.384,47.553c6.201,1.706,6.952,6.65-1.871,8.956c-4.437,1.159-8.896,1.731-13.473,1.731
	c-0.033,0-0.062-0.003-0.27-0.003c-0.033,0-0.064,0.003-0.095,0.003c-4.575,0-9.036-0.572-13.474-1.734
	c-8.821-2.303-4.816-7.896-1.871-8.953 M334.462,237.129l7.043,0.033l-2.478-33.876c-0.367-0.102-0.715-0.167-1.045-0.193
	c-0.33,0.026-0.68,0.092-1.044,0.193L334.462,237.129z"/>
<path fill="#905BA1" d="M293.54,153.864c0-7.138,5.826-12.924,13.011-12.924c7.185,0,13.013,5.786,13.013,12.924
	c0,7.145-5.829,12.927-13.013,12.927C299.367,166.791,293.54,161.009,293.54,153.864z M294.323,204.707
	c0.013-0.159,0.056-0.306,0.08-0.465c0.373-8.567,0.786-16.958,1.021-21.584c-3.259,4.414-5.246,11.828-5.752,21.768
	c-0.121,2.438-2.15,4.329-4.581,4.329c-0.073,0-0.153,0-0.232-0.005c-2.534-0.126-4.481-2.271-4.351-4.786
	c0.429-8.376,1.641-17.329,6.075-24.648c1.042-1.722,2.256-3.311,3.689-4.733c1.591-1.582,3.446-3.035,5.416-4.134
	c0.854-0.474,1.754-0.857,2.674-1.172c2.245-0.764,4.612-1.135,6.978-1.214l-4.209,35.081l5.333,5.438l5.333-5.438l-4.206-35.081
	c2.408,0.083,4.83,0.464,7.106,1.261c0.918,0.321,1.818,0.711,2.665,1.195c1.525,0.867,3.016,1.999,4.326,3.157
	c6.481,5.705,9.995,15.613,10.733,30.289c0.131,2.515-1.817,4.659-4.352,4.785c-0.079,0.008-0.159,0.008-0.231,0.008
	c-2.43,0-4.46-1.895-4.583-4.332c-0.505-9.939-2.493-17.353-5.752-21.768c0.235,4.626,0.649,13.017,1.022,21.584
	c0.024,0.159,0.067,0.306,0.08,0.465l3.384,47.551c6.202,1.708,6.952,6.653-1.871,8.956c-4.438,1.159-8.897,1.731-13.472,1.731
	c-0.033,0-0.062-0.003-0.27-0.003c-0.033,0-0.064,0.003-0.095,0.003c-4.575,0-9.036-0.572-13.474-1.732
	c-8.821-2.302-4.815-7.897-1.871-8.955 M302.943,250.348l7.043,0.03l-2.478-33.876c-0.367-0.1-0.715-0.166-1.045-0.193
	c-0.329,0.027-0.679,0.094-1.044,0.193L302.943,250.348z"/>
<path fill="#905BA1" d="M325.059,140.647c0-7.138,5.826-12.924,13.011-12.924c7.184,0,13.013,5.786,13.013,12.924
	c0,7.145-5.829,12.927-13.013,12.927C330.884,153.574,325.059,147.792,325.059,140.647z M325.841,191.49
	c0.014-0.159,0.056-0.306,0.08-0.465c0.373-8.568,0.785-16.958,1.021-21.585c-3.259,4.415-5.246,11.829-5.753,21.768
	c-0.12,2.438-2.15,4.33-4.581,4.33c-0.073,0-0.153,0-0.233-0.005c-2.534-0.126-4.481-2.271-4.351-4.786
	c0.429-8.376,1.641-17.329,6.075-24.649c1.042-1.721,2.256-3.31,3.688-4.732c1.592-1.582,3.446-3.035,5.416-4.134
	c0.854-0.474,1.754-0.857,2.674-1.172c2.245-0.764,4.613-1.136,6.978-1.214l-4.209,35.081l5.334,5.438l5.333-5.438l-4.206-35.081
	c2.408,0.083,4.83,0.464,7.105,1.261c0.919,0.321,1.819,0.711,2.665,1.195c1.525,0.867,3.016,1.999,4.327,3.157
	c6.481,5.705,9.995,15.613,10.733,30.289c0.131,2.514-1.817,4.659-4.352,4.785c-0.079,0.008-0.159,0.008-0.23,0.008
	c-2.431,0-4.461-1.895-4.583-4.333c-0.505-9.938-2.493-17.352-5.751-21.768c0.235,4.627,0.649,13.017,1.021,21.585
	c0.024,0.159,0.067,0.306,0.081,0.465l3.384,47.552c6.201,1.706,6.952,6.65-1.871,8.956c-4.437,1.159-8.896,1.731-13.473,1.731
	c-0.033,0-0.062-0.003-0.27-0.003c-0.033,0-0.064,0.003-0.095,0.003c-4.575,0-9.036-0.572-13.474-1.734
	c-8.821-2.303-4.816-7.896-1.871-8.953 M334.462,237.129l7.043,0.033l-2.478-33.876c-0.367-0.102-0.715-0.167-1.045-0.193
	c-0.33,0.026-0.68,0.092-1.044,0.193L334.462,237.129z"/>
<path fill="#905BA1" d="M263.04,140.646c0-7.138,5.826-12.924,13.01-12.924c7.184,0,13.014,5.786,13.014,12.924
	c0,7.145-5.829,12.927-13.014,12.927C268.865,153.573,263.04,147.791,263.04,140.646z M263.822,191.489
	c0.013-0.159,0.056-0.306,0.08-0.465c0.373-8.567,0.786-16.958,1.022-21.584c-3.259,4.414-5.246,11.828-5.753,21.768
	c-0.12,2.438-2.15,4.329-4.581,4.329c-0.073,0-0.153,0-0.233-0.005c-2.534-0.126-4.481-2.271-4.351-4.786
	c0.429-8.376,1.641-17.329,6.075-24.648c1.042-1.722,2.256-3.311,3.689-4.732c1.591-1.583,3.446-3.035,5.416-4.135
	c0.854-0.474,1.754-0.856,2.674-1.171c2.245-0.765,4.613-1.136,6.978-1.215l-4.209,35.081l5.333,5.438l5.333-5.438l-4.206-35.081
	c2.408,0.083,4.83,0.464,7.105,1.261c0.919,0.321,1.818,0.711,2.664,1.195c1.525,0.867,3.017,1.999,4.327,3.157
	c6.481,5.706,9.995,15.614,10.734,30.29c0.131,2.514-1.817,4.658-4.352,4.784c-0.079,0.008-0.16,0.008-0.231,0.008
	c-2.431,0-4.46-1.895-4.583-4.332c-0.505-9.939-2.493-17.353-5.751-21.768c0.235,4.626,0.649,13.017,1.021,21.584
	c0.024,0.159,0.067,0.306,0.08,0.465l3.384,47.553c6.202,1.706,6.952,6.65-1.87,8.956c-4.437,1.159-8.897,1.731-13.473,1.731
	c-0.033,0-0.062-0.003-0.27-0.003c-0.033,0-0.064,0.003-0.095,0.003c-4.575,0-9.036-0.572-13.474-1.734
	c-8.821-2.303-4.816-7.896-1.871-8.953 M272.443,237.129l7.043,0.033l-2.478-33.876c-0.366-0.102-0.715-0.167-1.045-0.193
	c-0.329,0.026-0.679,0.092-1.044,0.193L272.443,237.129z"/>
<rect x="250" y="274.894" fill="none" width="300" height="98.051"/>
<g enable-background="new    ">
	<path fill="#905BA1" d="M272.352,276.03c3.443,1.835,5.549,5.049,6.32,9.643h-4.713c-0.562-2.568-1.726-4.438-3.491-5.61
		c-1.765-1.173-3.991-1.759-6.677-1.759c-3.187,0-5.87,1.221-8.048,3.66c-2.179,2.441-3.269,6.078-3.269,10.91
		c0,4.18,0.899,7.581,2.696,10.205c1.798,2.624,4.729,3.936,8.793,3.936c3.11,0,5.686-0.921,7.726-2.764
		c2.04-1.842,3.084-4.82,3.132-8.936h-11.006v-3.948h15.432v18.806h-3.062l-1.148-4.521c-1.585,1.77-2.989,2.998-4.213,3.684
		c-2.056,1.181-4.668,1.771-7.837,1.771c-4.096,0-7.618-1.349-10.568-4.044c-3.216-3.382-4.825-8.023-4.825-13.925
		c0-5.886,1.572-10.567,4.716-14.045c2.987-3.317,6.854-4.977,11.603-4.977C267.165,274.116,269.978,274.755,272.352,276.03z"/>
	<path fill="#905BA1" d="M287.524,275.026h25.505v4.307h-20.863v10.67h19.284v4.068h-19.284v11.914h21.222v4.188h-25.864V275.026z"
		/>
	<path fill="#905BA1" d="M319.752,275.026h5.609l17.527,28.397v-28.397h4.546v35.146h-5.349l-17.787-28.363v28.363h-4.546V275.026z"
		/>
	<path fill="#905BA1" d="M355.593,275.026h25.505v4.307h-20.863v10.67h19.284v4.068h-19.284v11.914h21.222v4.188h-25.864V275.026z"
		/>
	<path fill="#905BA1" d="M388.396,275.026h15.976c2.631,0,4.801,0.391,6.508,1.172c3.242,1.499,4.863,4.267,4.863,8.303
		c0,2.105-0.434,3.828-1.304,5.168c-0.869,1.34-2.085,2.416-3.648,3.229c1.372,0.559,2.404,1.292,3.099,2.201
		c0.693,0.909,1.08,2.385,1.16,4.427l0.168,4.713c0.047,1.34,0.158,2.337,0.334,2.99c0.287,1.117,0.798,1.835,1.531,2.154v0.789
		h-5.838c-0.159-0.303-0.287-0.693-0.383-1.172s-0.176-1.404-0.238-2.775l-0.287-5.862c-0.109-2.297-0.938-3.836-2.488-4.618
		c-0.883-0.43-2.27-0.646-4.16-0.646h-10.531v15.073h-4.761V275.026z M403.859,291.128c2.172,0,3.89-0.446,5.154-1.34
		c1.264-0.894,1.896-2.504,1.896-4.833c0-2.504-0.885-4.211-2.652-5.12c-0.947-0.479-2.211-0.718-3.793-0.718h-11.308v12.011
		H403.859z"/>
	<path fill="#905BA1" d="M433.465,275.026h5.374l12.757,35.146h-5.217l-3.668-10.527h-13.789l-3.812,10.527h-4.881L433.465,275.026z
		 M441.359,295.77l-5.412-15.528l-5.622,15.528H441.359z"/>
	<path fill="#905BA1" d="M455.891,275.026h4.761v30.959h17.634v4.188h-22.395V275.026z"/>
	<path fill="#905BA1" d="M484.219,275.026h4.809v35.146h-4.809V275.026z"/>
	<path fill="#905BA1" d="M499.865,298.832c0.107,1.994,0.561,3.612,1.36,4.856c1.521,2.329,4.202,3.494,8.044,3.494
		c1.721,0,3.287-0.256,4.701-0.766c2.734-0.989,4.103-2.76,4.103-5.312c0-1.914-0.579-3.277-1.738-4.091
		c-1.175-0.798-3.013-1.491-5.517-2.081l-4.612-1.077c-3.013-0.702-5.146-1.476-6.397-2.321c-2.163-1.467-3.244-3.66-3.244-6.579
		c0-3.158,1.062-5.75,3.189-7.776c2.126-2.025,5.137-3.038,9.033-3.038c3.586,0,6.632,0.89,9.139,2.668s3.76,4.621,3.76,8.529
		h-4.474c-0.229-1.882-0.719-3.325-1.468-4.331c-1.393-1.834-3.755-2.751-7.088-2.751c-2.691,0-4.627,0.59-5.805,1.771
		s-1.766,2.552-1.766,4.115c0,1.723,0.695,2.982,2.086,3.78c0.912,0.511,2.976,1.148,6.189,1.914l4.775,1.124
		c2.304,0.543,4.081,1.284,5.332,2.226c2.164,1.643,3.246,4.027,3.246,7.153c0,3.893-1.381,6.676-4.142,8.351
		s-5.97,2.513-9.625,2.513c-4.263,0-7.599-1.117-10.011-3.35c-2.412-2.218-3.594-5.225-3.546-9.021H499.865z"/>
	<path fill="#905BA1" d="M554.99,275.026v4.187h-11.843v30.96h-4.81v-30.96h-11.843v-4.187H554.99z"/>
</g>
<g enable-background="new    ">
	<path fill="#905BA1" d="M261.749,336.827c-1.264,1.055-3.069,1.582-5.415,1.582h-4.496v7.764h-4.482v-21.592h9.271
		c2.137,0,3.841,0.557,5.112,1.67c1.271,1.113,1.906,2.837,1.906,5.171C263.645,333.971,263.012,335.772,261.749,336.827z
		 M258.305,329.049c-0.571-0.479-1.372-0.718-2.401-0.718h-4.066v6.357h4.066c1.029,0,1.83-0.259,2.401-0.776
		s0.857-1.338,0.857-2.461S258.876,329.527,258.305,329.049z"/>
	<path fill="#905BA1" d="M281.1,325.138c0.795,0.342,1.469,0.845,2.021,1.509c0.457,0.547,0.819,1.152,1.086,1.816
		s0.4,1.421,0.4,2.271c0,1.025-0.259,2.034-0.776,3.025s-1.372,1.691-2.563,2.102c0.996,0.4,1.702,0.97,2.117,1.707
		s0.623,1.862,0.623,3.376v1.45c0,0.986,0.04,1.655,0.119,2.007c0.119,0.557,0.396,0.967,0.833,1.23v0.542h-4.98
		c-0.137-0.479-0.234-0.864-0.293-1.157c-0.117-0.605-0.181-1.226-0.19-1.86l-0.029-2.007c-0.019-1.377-0.256-2.295-0.714-2.754
		c-0.457-0.459-1.314-0.688-2.57-0.688h-4.406v8.467h-4.409v-21.592h10.328C279.168,324.61,280.304,324.796,281.1,325.138z
		 M271.774,328.331v5.801h4.855c0.964,0,1.688-0.117,2.17-0.352c0.853-0.41,1.28-1.221,1.28-2.432c0-1.309-0.413-2.188-1.238-2.637
		c-0.464-0.254-1.159-0.381-2.087-0.381H271.774z"/>
	<path fill="#905BA1" d="M293.044,346.173h-4.482v-21.592h4.482V346.173z"/>
	<path fill="#905BA1" d="M311.586,324.581h6.492v21.592h-4.204v-14.604c0-0.42,0.005-1.008,0.015-1.765s0.015-1.341,0.015-1.751
		l-4.092,18.12h-4.385l-4.062-18.12c0,0.41,0.005,0.994,0.015,1.751s0.015,1.345,0.015,1.765v14.604h-4.204v-21.592h6.565
		l3.93,16.978L311.586,324.581z"/>
	<path fill="#905BA1" d="M328.427,324.581h5.105l7.639,21.592h-4.893l-1.425-4.438h-7.951l-1.464,4.438h-4.719L328.427,324.581z
		 M328.13,338.014h5.53l-2.728-8.496L328.13,338.014z"/>
	<path fill="#905BA1" d="M357.755,325.138c0.795,0.342,1.469,0.845,2.021,1.509c0.457,0.547,0.819,1.152,1.086,1.816
		s0.4,1.421,0.4,2.271c0,1.025-0.259,2.034-0.776,3.025s-1.372,1.691-2.563,2.102c0.996,0.4,1.702,0.97,2.117,1.707
		s0.623,1.862,0.623,3.376v1.45c0,0.986,0.04,1.655,0.119,2.007c0.119,0.557,0.396,0.967,0.833,1.23v0.542h-4.98
		c-0.137-0.479-0.234-0.864-0.293-1.157c-0.117-0.605-0.181-1.226-0.19-1.86l-0.029-2.007c-0.019-1.377-0.256-2.295-0.714-2.754
		c-0.457-0.459-1.314-0.688-2.57-0.688h-4.406v8.467h-4.409v-21.592h10.328C355.824,324.61,356.959,324.796,357.755,325.138z
		 M348.43,328.331v5.801h4.855c0.964,0,1.688-0.117,2.17-0.352c0.853-0.41,1.28-1.221,1.28-2.432c0-1.309-0.413-2.188-1.238-2.637
		c-0.464-0.254-1.159-0.381-2.087-0.381H348.43z"/>
	<path fill="#905BA1" d="M376.804,324.581h5.112l-7.222,13.496v8.096h-4.512v-8.096l-7.471-13.496h5.317l4.482,9.404
		L376.804,324.581z"/>
	<path fill="#905BA1" d="M407.99,324.581v3.823h-6.46v17.769h-4.541v-17.769H390.5v-3.823H407.99z"/>
	<path fill="#905BA1" d="M426.594,328.404h-11.426v4.585h10.488v3.75h-10.488v5.552h11.953v3.882h-16.362v-21.592h15.835V328.404z"
		/>
	<path fill="#905BA1" d="M436.811,324.581h5.105l7.639,21.592h-4.893l-1.424-4.438h-7.951l-1.465,4.438h-4.719L436.811,324.581z
		 M436.514,338.014h5.529l-2.727-8.496L436.514,338.014z"/>
	<path fill="#905BA1" d="M454.364,326.837c1.739-1.777,3.951-2.666,6.638-2.666c3.594,0,6.221,1.191,7.883,3.574
		c0.918,1.338,1.41,2.681,1.479,4.028h-4.512c-0.287-1.035-0.655-1.816-1.105-2.344c-0.803-0.938-1.994-1.406-3.572-1.406
		c-1.607,0-2.875,0.662-3.804,1.985c-0.928,1.323-1.392,3.195-1.392,5.617s0.49,4.236,1.469,5.441
		c0.979,1.207,2.223,1.81,3.732,1.81c1.548,0,2.728-0.518,3.539-1.553c0.449-0.557,0.822-1.392,1.118-2.505h4.482
		c-0.387,2.354-1.374,4.268-2.964,5.742c-1.589,1.475-3.625,2.212-6.107,2.212c-3.072,0-5.488-0.996-7.246-2.988
		c-1.759-2.002-2.638-4.746-2.638-8.232C451.364,331.783,452.364,328.878,454.364,326.837z"/>
	<path fill="#905BA1" d="M473.938,346.173v-21.592h4.482v8.232h8.394v-8.232h4.482v21.592h-4.482v-9.639h-8.394v9.639H473.938z"/>
	<path fill="#905BA1" d="M511.599,328.404h-11.426v4.585h10.488v3.75h-10.488v5.552h11.953v3.882h-16.362v-21.592h15.835V328.404z"
		/>
	<path fill="#905BA1" d="M529.479,325.138c0.795,0.342,1.469,0.845,2.021,1.509c0.457,0.547,0.818,1.152,1.086,1.816
		c0.266,0.664,0.399,1.421,0.399,2.271c0,1.025-0.259,2.034-0.776,3.025s-1.372,1.691-2.563,2.102c0.996,0.4,1.702,0.97,2.116,1.707
		c0.416,0.737,0.623,1.862,0.623,3.376v1.45c0,0.986,0.039,1.655,0.119,2.007c0.119,0.557,0.396,0.967,0.833,1.23v0.542h-4.98
		c-0.137-0.479-0.234-0.864-0.293-1.157c-0.117-0.605-0.181-1.226-0.19-1.86l-0.029-2.007c-0.019-1.377-0.256-2.295-0.714-2.754
		c-0.457-0.459-1.313-0.688-2.57-0.688h-4.406v8.467h-4.409v-21.592h10.328C527.547,324.61,528.684,324.796,529.479,325.138z
		 M520.153,328.331v5.801h4.855c0.964,0,1.688-0.117,2.171-0.352c0.853-0.41,1.279-1.221,1.279-2.432
		c0-1.309-0.413-2.188-1.238-2.637c-0.464-0.254-1.159-0.381-2.087-0.381H520.153z"/>
	<path fill="#905BA1" d="M540.559,339.508c0.14,0.986,0.414,1.724,0.822,2.212c0.748,0.889,2.029,1.333,3.844,1.333
		c1.087,0,1.97-0.117,2.647-0.352c1.286-0.449,1.93-1.284,1.93-2.505c0-0.713-0.315-1.265-0.944-1.655
		c-0.631-0.381-1.631-0.718-2.998-1.011l-2.338-0.513c-2.298-0.508-3.876-1.06-4.735-1.655c-1.455-0.996-2.183-2.554-2.183-4.673
		c0-1.934,0.711-3.54,2.135-4.819s3.516-1.919,6.273-1.919c2.303,0,4.268,0.604,5.895,1.81c1.626,1.206,2.479,2.956,2.558,5.251
		h-4.336c-0.08-1.299-0.661-2.222-1.742-2.769c-0.721-0.361-1.616-0.542-2.688-0.542c-1.191,0-2.143,0.234-2.854,0.703
		c-0.71,0.469-1.065,1.123-1.065,1.963c0,0.771,0.351,1.348,1.052,1.729c0.449,0.254,1.406,0.552,2.868,0.894l3.789,0.894
		c1.661,0.391,2.905,0.913,3.734,1.567c1.287,1.016,1.931,2.485,1.931,4.409c0,1.973-0.763,3.61-2.287,4.915
		c-1.525,1.303-3.68,1.955-6.463,1.955c-2.844,0-5.078-0.642-6.707-1.926s-2.443-3.05-2.443-5.296H540.559z"/>
</g>
<path fill="#905BA1" d="M388.11,427.502c0-7.2,5.877-13.035,13.123-13.035c7.25,0,13.129,5.835,13.129,13.035
	c0,7.207-5.879,13.041-13.129,13.041C393.987,440.543,388.11,434.709,388.11,427.502z M388.9,478.79
	c0.014-0.161,0.058-0.31,0.082-0.468c0.375-8.646,0.792-17.107,1.029-21.774c-3.284,4.452-5.292,11.934-5.802,21.958
	c-0.12,2.459-2.168,4.368-4.622,4.368c-0.072,0-0.156,0-0.232-0.007c-2.556-0.125-4.521-2.288-4.391-4.828
	c0.434-8.448,1.655-17.479,6.128-24.864c1.05-1.733,2.275-3.337,3.722-4.771c1.605-1.598,3.475-3.062,5.463-4.171
	c0.86-0.479,1.771-0.863,2.699-1.182c2.264-0.771,4.65-1.146,7.037-1.227l-4.246,35.39l5.381,5.485l5.377-5.485l-4.243-35.39
	c2.432,0.084,4.875,0.469,7.17,1.271c0.926,0.324,1.836,0.72,2.688,1.207c1.535,0.874,3.045,2.018,4.363,3.188
	c6.539,5.753,10.08,15.748,10.826,30.554c0.133,2.537-1.834,4.7-4.393,4.825c-0.076,0.01-0.156,0.01-0.229,0.01
	c-2.453,0-4.5-1.912-4.625-4.371c-0.508-10.024-2.516-17.503-5.801-21.958c0.234,4.667,0.652,13.13,1.029,21.774
	c0.023,0.158,0.068,0.307,0.08,0.468l3.412,47.968c6.258,1.723,7.016,6.708-1.887,9.034c-4.475,1.169-8.975,1.745-13.59,1.745
	c-0.035,0-0.062-0.003-0.27-0.003c-0.035,0-0.068,0.003-0.1,0.003c-4.615,0-9.115-0.576-13.592-1.748
	c-8.897-2.323-4.857-7.966-1.888-9.031 M397.595,524.828l7.104,0.032l-2.496-34.175c-0.373-0.102-0.723-0.167-1.055-0.191
	c-0.334,0.024-0.687,0.092-1.058,0.191L397.595,524.828z"/>
<path fill="#905BA1" d="M419.904,414.17c0-7.199,5.877-13.037,13.125-13.037s13.127,5.838,13.127,13.037
	c0,7.206-5.879,13.039-13.127,13.039S419.904,421.376,419.904,414.17z M420.693,465.457c0.014-0.16,0.057-0.309,0.082-0.469
	c0.375-8.645,0.791-17.107,1.025-21.773c-3.283,4.453-5.287,11.934-5.801,21.958c-0.123,2.46-2.17,4.368-4.619,4.368
	c-0.074,0-0.154,0-0.234-0.006c-2.559-0.127-4.521-2.291-4.391-4.828c0.434-8.449,1.654-17.48,6.129-24.863
	c1.053-1.734,2.275-3.34,3.721-4.771c1.605-1.598,3.479-3.062,5.465-4.172c0.857-0.479,1.77-0.865,2.691-1.183
	c2.27-0.771,4.656-1.146,7.043-1.226l-4.246,35.387l5.381,5.488l5.381-5.488l-4.242-35.387c2.426,0.083,4.871,0.468,7.168,1.271
	c0.926,0.325,1.832,0.721,2.688,1.206c1.537,0.877,3.041,2.02,4.363,3.188c6.537,5.756,10.082,15.752,10.828,30.554
	c0.131,2.536-1.832,4.7-4.389,4.827c-0.08,0.008-0.164,0.008-0.236,0.008c-2.449,0-4.496-1.91-4.619-4.37
	c-0.512-10.024-2.516-17.504-5.805-21.958c0.238,4.666,0.656,13.131,1.031,21.773c0.021,0.16,0.064,0.309,0.082,0.469l3.414,47.969
	c6.256,1.723,7.012,6.709-1.889,9.033c-4.479,1.17-8.977,1.746-13.59,1.746c-0.035,0-0.064-0.002-0.273-0.002
	c-0.033,0-0.062,0.002-0.098,0.002c-4.615,0-9.109-0.576-13.59-1.748c-8.896-2.322-4.855-7.966-1.887-9.031 M429.391,511.494
	l7.104,0.035l-2.5-34.172c-0.369-0.104-0.721-0.172-1.055-0.195c-0.33,0.023-0.688,0.093-1.055,0.195L429.391,511.494z"/>
<path fill="#905BA1" d="M357.342,414.17c0-7.199,5.879-13.038,13.125-13.038c7.248,0,13.128,5.839,13.128,13.038
	c0,7.206-5.88,13.039-13.128,13.039C363.221,427.209,357.342,421.376,357.342,414.17z M358.131,465.455
	c0.017-0.158,0.058-0.307,0.082-0.469c0.375-8.643,0.793-17.105,1.032-21.771c-3.288,4.453-5.292,11.934-5.802,21.958
	c-0.124,2.458-2.169,4.366-4.623,4.366c-0.074,0-0.154,0-0.233-0.004c-2.557-0.129-4.522-2.291-4.389-4.828
	c0.432-8.449,1.653-17.48,6.129-24.863c1.049-1.734,2.274-3.341,3.719-4.771c1.605-1.6,3.477-3.062,5.463-4.172
	c0.862-0.479,1.771-0.865,2.696-1.184c2.266-0.771,4.655-1.146,7.04-1.225L365,463.878l5.379,5.486l5.381-5.486l-4.242-35.386
	c2.428,0.082,4.871,0.467,7.167,1.271c0.926,0.325,1.833,0.721,2.688,1.205c1.54,0.876,3.041,2.021,4.363,3.188
	c6.539,5.757,10.083,15.749,10.828,30.554c0.132,2.537-1.834,4.699-4.39,4.828c-0.08,0.006-0.161,0.006-0.234,0.006
	c-2.451,0-4.5-1.91-4.622-4.368c-0.508-10.024-2.515-17.505-5.804-21.958c0.239,4.666,0.656,13.131,1.032,21.771
	c0.023,0.162,0.067,0.311,0.082,0.469l3.414,47.971c6.255,1.723,7.012,6.709-1.888,9.033c-4.475,1.17-8.975,1.746-13.59,1.746
	c-0.033,0-0.063-0.002-0.273-0.002c-0.032,0-0.063,0.002-0.094,0.002c-4.615,0-9.114-0.576-13.592-1.748
	c-8.899-2.322-4.857-7.966-1.887-9.031 M366.829,511.494l7.104,0.035l-2.499-34.172c-0.37-0.104-0.723-0.172-1.057-0.195
	c-0.33,0.023-0.685,0.093-1.054,0.195L366.829,511.494z"/>
<rect x="243.25" y="549.589" fill="none" width="313.5" height="122.688"/>
<g enable-background="new    ">
	<path fill="#905BA1" d="M338.786,573.527c0.107,1.994,0.561,3.612,1.36,4.856c1.521,2.329,4.202,3.494,8.043,3.494
		c1.721,0,3.288-0.256,4.702-0.766c2.735-0.989,4.103-2.76,4.103-5.312c0-1.914-0.58-3.277-1.738-4.091
		c-1.175-0.798-3.013-1.491-5.517-2.081l-4.612-1.077c-3.013-0.702-5.146-1.476-6.397-2.321c-2.164-1.467-3.245-3.66-3.245-6.579
		c0-3.158,1.063-5.75,3.189-7.776c2.126-2.025,5.138-3.038,9.034-3.038c3.585,0,6.631,0.89,9.138,2.668s3.76,4.621,3.76,8.529
		h-4.474c-0.229-1.882-0.719-3.325-1.468-4.331c-1.392-1.834-3.754-2.751-7.088-2.751c-2.691,0-4.626,0.59-5.804,1.771
		s-1.766,2.552-1.766,4.115c0,1.723,0.695,2.982,2.086,3.78c0.912,0.511,2.975,1.148,6.189,1.914l4.775,1.124
		c2.303,0.543,4.081,1.284,5.332,2.226c2.164,1.643,3.246,4.027,3.246,7.153c0,3.893-1.38,6.676-4.142,8.351
		s-5.97,2.513-9.625,2.513c-4.263,0-7.599-1.117-10.01-3.35c-2.412-2.218-3.594-5.225-3.546-9.021H338.786z"/>
	<path fill="#905BA1" d="M393.911,549.722v4.187h-11.843v30.96h-4.809v-30.96h-11.843v-4.187H393.911z"/>
	<path fill="#905BA1" d="M398.744,549.722h25.505v4.307h-20.863v10.67h19.284v4.068h-19.284v11.914h21.222v4.188h-25.863V549.722z"
		/>
	<path fill="#905BA1" d="M430.853,549.722h6.821l10.105,29.715l10.035-29.715h6.773v35.146h-4.546v-20.744
		c0-0.717,0.016-1.905,0.048-3.564c0.031-1.659,0.048-3.438,0.048-5.336l-10.034,29.645h-4.719l-10.13-29.645v1.077
		c0,0.861,0.024,2.174,0.071,3.936c0.049,1.763,0.072,3.059,0.072,3.888v20.744h-4.546V549.722z"/>
</g>
<g enable-background="new    ">
	<path fill="#905BA1" d="M241.447,611.27c0.125,0.888,0.373,1.551,0.74,1.99c0.673,0.8,1.826,1.199,3.459,1.199
		c0.978,0,1.772-0.105,2.383-0.316c1.158-0.403,1.736-1.155,1.736-2.254c0-0.642-0.284-1.138-0.851-1.49
		c-0.567-0.342-1.467-0.646-2.698-0.909l-2.104-0.462c-2.068-0.456-3.488-0.953-4.262-1.489c-1.31-0.896-1.964-2.298-1.964-4.206
		c0-1.74,0.641-3.186,1.922-4.337s3.163-1.728,5.646-1.728c2.073,0,3.841,0.543,5.305,1.629c1.464,1.085,2.231,2.661,2.302,4.727
		h-3.902c-0.072-1.169-0.595-2-1.568-2.492c-0.649-0.325-1.455-0.488-2.419-0.488c-1.073,0-1.929,0.211-2.568,0.633
		s-0.959,1.012-0.959,1.768c0,0.694,0.315,1.213,0.946,1.555c0.405,0.229,1.266,0.497,2.582,0.805l3.41,0.805
		c1.495,0.352,2.615,0.821,3.361,1.41c1.159,0.914,1.738,2.237,1.738,3.969c0,1.775-0.687,3.249-2.059,4.423
		c-1.373,1.173-3.311,1.76-5.816,1.76c-2.558,0-4.57-0.578-6.036-1.733c-1.466-1.156-2.199-2.744-2.199-4.766H241.447z"/>
	<path fill="#905BA1" d="M270.899,601.275h-10.283v4.127h9.439v3.375h-9.439v4.996h10.758v3.494h-14.726v-19.433h14.251V601.275z"/>
	<path fill="#905BA1" d="M276.395,599.865c1.565-1.6,3.556-2.399,5.973-2.399c3.235,0,5.6,1.072,7.096,3.217
		c0.826,1.204,1.269,2.413,1.33,3.626h-4.061c-0.258-0.932-0.59-1.635-0.995-2.109c-0.723-0.844-1.795-1.266-3.216-1.266
		c-1.447,0-2.587,0.595-3.423,1.786c-0.835,1.19-1.252,2.876-1.252,5.056s0.44,3.812,1.322,4.897
		c0.881,1.086,2.001,1.628,3.359,1.628c1.393,0,2.455-0.465,3.186-1.396c0.404-0.502,0.739-1.253,1.006-2.255h4.034
		c-0.348,2.118-1.237,3.841-2.667,5.168c-1.431,1.327-3.263,1.991-5.498,1.991c-2.765,0-4.939-0.896-6.521-2.689
		c-1.583-1.802-2.374-4.271-2.374-7.41C273.694,604.317,274.594,601.702,276.395,599.865z"/>
	<path fill="#905BA1" d="M309,615.541c-1.468,1.512-3.59,2.268-6.368,2.268s-4.9-0.756-6.368-2.268
		c-1.969-1.854-2.953-4.526-2.953-8.016c0-3.561,0.984-6.231,2.953-8.016c1.468-1.512,3.59-2.268,6.368-2.268s4.9,0.756,6.368,2.268
		c1.96,1.784,2.94,4.455,2.94,8.016C311.94,611.015,310.96,613.687,309,615.541z M306.462,612.588
		c0.944-1.188,1.417-2.875,1.417-5.062c0-2.18-0.473-3.865-1.417-5.057c-0.945-1.19-2.222-1.786-3.83-1.786s-2.892,0.593-3.85,1.78
		c-0.958,1.186-1.437,2.873-1.437,5.062c0,2.188,0.479,3.875,1.437,5.062c0.958,1.186,2.241,1.779,3.85,1.779
		S305.517,613.773,306.462,612.588z"/>
	<path fill="#905BA1" d="M314.972,597.835h4.257l7.714,13.55v-13.55h3.784v19.433h-4.06l-7.911-13.788v13.788h-3.784V597.835z"/>
	<path fill="#905BA1" d="M345.923,598.257c1.363,0.448,2.467,1.271,3.312,2.466c0.677,0.967,1.139,2.013,1.385,3.137
		c0.247,1.126,0.37,2.198,0.37,3.217c0,2.584-0.519,4.773-1.557,6.566c-1.407,2.417-3.58,3.625-6.518,3.625h-8.378v-19.433h8.378
		C344.12,597.853,345.123,597.993,345.923,598.257z M338.479,601.21v12.683h3.75c1.919,0,3.257-0.944,4.014-2.834
		c0.414-1.037,0.621-2.272,0.621-3.705c0-1.978-0.311-3.496-0.931-4.555c-0.621-1.06-1.855-1.589-3.704-1.589H338.479z"/>
	<path fill="#905BA1" d="M359.592,597.835h4.595l6.875,19.433h-4.403l-1.282-3.994h-7.156l-1.317,3.994h-4.247L359.592,597.835z
		 M359.324,609.924h4.977l-2.455-7.646L359.324,609.924z"/>
	<path fill="#905BA1" d="M385.987,598.336c0.716,0.308,1.322,0.761,1.819,1.357c0.411,0.493,0.737,1.038,0.977,1.635
		c0.24,0.599,0.36,1.279,0.36,2.044c0,0.923-0.233,1.83-0.699,2.723c-0.466,0.892-1.235,1.522-2.307,1.892
		c0.896,0.36,1.531,0.872,1.905,1.536c0.373,0.663,0.56,1.677,0.56,3.038v1.306c0,0.888,0.036,1.489,0.107,1.806
		c0.107,0.502,0.357,0.871,0.75,1.107v0.488h-4.482c-0.123-0.431-0.211-0.777-0.264-1.041c-0.105-0.545-0.163-1.104-0.171-1.675
		l-0.026-1.806c-0.017-1.24-0.231-2.065-0.642-2.479c-0.412-0.413-1.183-0.62-2.313-0.62h-3.966v7.62h-3.968v-19.433h9.295
		C384.249,597.861,385.271,598.028,385.987,598.336z M377.594,601.21v5.221h4.37c0.868,0,1.519-0.105,1.953-0.316
		c0.768-0.369,1.152-1.099,1.152-2.188c0-1.178-0.372-1.969-1.114-2.373c-0.417-0.229-1.043-0.343-1.878-0.343H377.594z"/>
	<path fill="#905BA1" d="M403.131,597.835h4.602l-6.5,12.146v7.286h-4.061v-7.286l-6.724-12.146h4.786l4.034,8.464L403.131,597.835z
		"/>
	<path fill="#905BA1" d="M431.199,597.835v3.44h-5.814v15.992h-4.087v-15.992h-5.841v-3.44H431.199z"/>
	<path fill="#905BA1" d="M447.941,601.275h-10.283v4.127h9.439v3.375h-9.439v4.996h10.758v3.494H433.69v-19.433h14.251V601.275z"/>
	<path fill="#905BA1" d="M457.137,597.835h4.596l6.875,19.433h-4.404l-1.281-3.994h-7.156l-1.318,3.994h-4.246L457.137,597.835z
		 M456.869,609.924h4.978l-2.454-7.646L456.869,609.924z"/>
	<path fill="#905BA1" d="M472.936,599.865c1.564-1.6,3.557-2.399,5.973-2.399c3.235,0,5.6,1.072,7.096,3.217
		c0.826,1.204,1.27,2.413,1.33,3.626h-4.061c-0.258-0.932-0.59-1.635-0.994-2.109c-0.723-0.844-1.795-1.266-3.216-1.266
		c-1.446,0-2.587,0.595-3.423,1.786c-0.835,1.19-1.252,2.876-1.252,5.056s0.439,3.812,1.321,4.897
		c0.882,1.086,2.001,1.628,3.359,1.628c1.393,0,2.454-0.465,3.186-1.396c0.403-0.502,0.739-1.253,1.006-2.255h4.034
		c-0.348,2.118-1.236,3.841-2.667,5.168s-3.263,1.991-5.497,1.991c-2.766,0-4.939-0.896-6.521-2.689
		c-1.583-1.802-2.374-4.271-2.374-7.41C470.235,604.317,471.135,601.702,472.936,599.865z"/>
	<path fill="#905BA1" d="M490.551,617.268v-19.433h4.035v7.409h7.554v-7.409h4.034v19.433h-4.034v-8.675h-7.554v8.675H490.551z"/>
	<path fill="#905BA1" d="M524.446,601.275h-10.283v4.127h9.439v3.375h-9.439v4.996h10.758v3.494h-14.726v-19.433h14.251V601.275z"/>
	<path fill="#905BA1" d="M540.538,598.336c0.716,0.308,1.322,0.761,1.819,1.357c0.411,0.493,0.736,1.038,0.977,1.635
		c0.24,0.599,0.36,1.279,0.36,2.044c0,0.923-0.233,1.83-0.698,2.723c-0.467,0.892-1.235,1.522-2.308,1.892
		c0.896,0.36,1.531,0.872,1.905,1.536c0.373,0.663,0.561,1.677,0.561,3.038v1.306c0,0.888,0.035,1.489,0.106,1.806
		c0.107,0.502,0.356,0.871,0.75,1.107v0.488h-4.482c-0.123-0.431-0.211-0.777-0.264-1.041c-0.105-0.545-0.163-1.104-0.171-1.675
		l-0.027-1.806c-0.016-1.24-0.23-2.065-0.642-2.479s-1.183-0.62-2.313-0.62h-3.966v7.62h-3.968v-19.433h9.295
		C538.801,597.861,539.822,598.028,540.538,598.336z M532.146,601.21v5.221h4.37c0.867,0,1.52-0.105,1.953-0.316
		c0.768-0.369,1.152-1.099,1.152-2.188c0-1.178-0.372-1.969-1.115-2.373c-0.417-0.229-1.043-0.343-1.878-0.343H532.146z"/>
	<path fill="#905BA1" d="M550.51,611.27c0.126,0.888,0.373,1.551,0.74,1.99c0.674,0.8,1.826,1.199,3.46,1.199
		c0.978,0,1.772-0.105,2.383-0.316c1.157-0.403,1.736-1.155,1.736-2.254c0-0.642-0.284-1.138-0.851-1.49
		c-0.567-0.342-1.467-0.646-2.698-0.909l-2.104-0.462c-2.067-0.456-3.488-0.953-4.262-1.489c-1.31-0.896-1.964-2.298-1.964-4.206
		c0-1.74,0.641-3.186,1.922-4.337s3.162-1.728,5.645-1.728c2.073,0,3.842,0.543,5.305,1.629c1.465,1.085,2.231,2.661,2.303,4.727
		h-3.902c-0.072-1.169-0.595-2-1.568-2.492c-0.648-0.325-1.455-0.488-2.418-0.488c-1.073,0-1.93,0.211-2.568,0.633
		c-0.641,0.422-0.96,1.012-0.96,1.768c0,0.694,0.315,1.213,0.946,1.555c0.405,0.229,1.266,0.497,2.582,0.805l3.41,0.805
		c1.494,0.352,2.614,0.821,3.36,1.41c1.159,0.914,1.737,2.237,1.737,3.969c0,1.775-0.686,3.249-2.059,4.423
		c-1.373,1.173-3.311,1.76-5.816,1.76c-2.559,0-4.57-0.578-6.036-1.733c-1.466-1.156-2.198-2.744-2.198-4.766H550.51z"/>
</g>
<g id="Layer_1_1_" display="none">
	<path display="inline" fill="#36B195" d="M357.629,242.372c0-23.405,19.101-42.372,42.654-42.372
		c23.555,0,42.665,18.967,42.665,42.372c0,23.426-19.11,42.382-42.665,42.382C376.73,284.754,357.629,265.798,357.629,242.372z
		 M353.263,506.455l6.932-97.396c0.043-0.521,0.185-1,0.262-1.52c1.223-28.093,2.575-55.6,3.351-70.77
		c-10.685,14.476-17.202,38.78-18.86,71.364c-0.393,7.996-7.051,14.202-15.021,14.202c-0.24,0-0.501,0-0.763-0.021
		c-8.307-0.413-14.692-7.442-14.265-15.691c1.407-27.462,5.379-56.813,19.918-80.814c3.417-5.642,7.4-10.851,12.094-15.517
		c5.217-5.188,11.297-9.949,17.759-13.553c2.794-1.552,5.751-2.809,8.764-3.841c7.357-2.505,15.129-3.721,22.878-3.981
		l-13.797,115.015L400,421.768l17.484-17.828l-13.795-115.019c7.9,0.271,15.836,1.52,23.302,4.135
		c3.013,1.052,5.96,2.333,8.731,3.917c4.999,2.843,9.889,6.554,14.188,10.353c21.25,18.706,32.765,51.191,35.188,99.304
		c0.428,8.248-5.959,15.279-14.266,15.689c-0.262,0.021-0.524,0.021-0.764,0.021c-7.971,0-14.625-6.207-15.021-14.203
		c-1.659-32.585-8.175-56.891-18.859-71.363c0.773,15.169,2.13,42.677,3.353,70.768c0.075,0.521,0.219,0.999,0.262,1.521
		l6.932,97.396c20.322,5.601,36.379,14.562,44.943,25.445h44.074v-7.648c0-5.198,5.075-7.021,11.297-4.036l38.289,18.38
		c6.211,2.995,6.211,7.879,0,10.841l-38.289,18.392c-6.22,2.996-11.297,1.172-11.297-4.035v-8.246H498
		c-3.678,16.906-24.307,31.229-53.23,38.78c-14.547,3.793-29.172,5.67-44.17,5.67c-0.107,0-0.206-0.01-0.884-0.01
		c-0.108,0-0.207,0.01-0.315,0.01c-14.997,0-29.623-1.877-44.172-5.676c-28.923-7.553-49.553-21.874-53.23-38.78h-37.754v8.247
		c0,5.207-5.076,7.031-11.297,4.035l-38.289-18.393c-6.21-2.961-6.21-7.845,0-10.84l38.289-18.382
		c6.221-2.984,11.297-1.161,11.297,4.036v7.648h44.073C316.885,521.018,332.94,512.055,353.263,506.455 M352.489,517.285
		c-12.302,3.842-28.685,10.428-28.685,24.349c0,9.243,9.781,17.545,25.29,23.329L352.489,517.285z M392.796,500.639
		c2.205-0.107,4.441-0.41,6.604-0.434v-0.043c0.108,0,0.219,0.021,0.315,0.021c0.077,0,0.165,0,0.252-0.01v-0.012
		c0.01,0,0.021,0,0.032,0s0.021,0,0.033,0v0.012c0.088,0.01,0.174,0.01,0.25,0.01c0.099,0,0.208-0.021,0.315-0.021v0.043
		c2.174,0.023,4.397,0.324,6.604,0.434l-3.777-52.904c-1.2-0.326-2.348-0.543-3.428-0.631c-1.08,0.088-2.227,0.304-3.427,0.631
		L392.796,500.639z M412.334,572.797l-4.441-62.369c-2.533-0.131-5.076-0.262-7.607-0.293v0.021c-0.087,0-0.184-0.01-0.283-0.01
		c-0.098,0-0.197,0.01-0.284,0.01v-0.021c-2.531,0.031-5.075,0.162-7.607,0.293l-4.443,62.369c3.929,0.282,7.935,0.498,12.05,0.542
		v-0.021c0.099,0,0.198,0,0.284,0c0.088,0,0.187,0,0.283,0v0.021C404.396,573.295,408.404,573.079,412.334,572.797z
		 M476.194,541.635c0-13.922-16.385-20.508-28.685-24.349l3.396,47.677C466.416,559.179,476.194,550.877,476.194,541.635z"/>
	<path display="inline" fill="none" stroke="#36B195" stroke-width="20" stroke-miterlimit="10" d="M750,400
		c0,193.288-156.712,350-350,350C206.71,750,50,593.288,50,400C50,206.71,206.71,50,400,50C593.288,50,750,206.71,750,400z"/>
</g>
<g id="Layer_2" display="none">
	<path display="inline" fill="#F0D900" d="M600,575v25H225h-25v-25V200h25v375H600z M557.91,434.668l-35.254-93.262l-23.657,28.906
		L290.82,200L275,219.36l208.154,170.312l-23.656,28.931L557.91,434.668z M275,251.66V550h50V292.578L275,251.66z M350,313.038V550
		h50V353.931L350,313.038z M425,438.281V550h50V446.46L425,438.281z M500,450.537V550h50v-91.309L500,450.537z"/>
	<path display="inline" fill="none" stroke="#F0D900" stroke-width="20" stroke-miterlimit="10" d="M750,400
		c0,193.288-156.712,350-350,350C206.71,750,50,593.288,50,400C50,206.71,206.71,50,400,50C593.288,50,750,206.71,750,400z"/>
</g>
</svg>
