<?xml version="1.0" encoding="utf-8"?>
<!-- Generator: Adobe Illustrator 16.0.0, SVG Export Plug-In . SVG Version: 6.00 Build 0)  -->
<!DOCTYPE svg PUBLIC "-//W3C//DTD SVG 1.1//EN" "http://www.w3.org/Graphics/SVG/1.1/DTD/svg11.dtd">
<svg version="1.1" xmlns="http://www.w3.org/2000/svg" xmlns:xlink="http://www.w3.org/1999/xlink" x="0px" y="0px" width="200px"
	 height="200px" viewBox="0 0 200 200" enable-background="new 0 0 200 200" xml:space="preserve">
<g id="Layer_1">
	<g>
		<path fill="#B4DCD6" d="M94.3,50.055c0.692,0.359,1.415,0.665,2.157,0.923c1.642,0.567,3.395,0.891,5.228,0.891
			c1.867,0,3.651-0.335,5.315-0.923c0.769-0.271,1.516-0.586,2.227-0.967c1.223-0.654,2.341-1.473,3.347-2.409
			c3.139-2.92,5.111-7.075,5.111-11.7c0-8.837-7.163-16.001-16-16.001c-8.835,0-16,7.164-16,16.001c0,4.625,1.975,8.78,5.112,11.7
			C91.846,48.547,93.019,49.387,94.3,50.055z"/>
		<path fill="#B4DCD6" d="M124.857,86.869c-2.122-1.522-3.522-3.779-3.945-6.356c-0.423-2.576,0.184-5.162,1.708-7.287
			c1.833-2.548,4.803-4.068,7.945-4.068c0.653,0,1.294,0.087,1.924,0.213v-7.126c0-4.972-4.028-9.005-9.002-9.005h-9.611
			l-6.059,9.746l-6.065-9.746h-0.023l-6.062,9.746l-6.06-9.746h-9.724v0.017c-2.241,0.043-4.475,0.907-6.188,2.62l-7.005,7.008
			l-1.112-1.111l-1.331-1.332l-4.566-4.562c-1.755-1.758-4.061-2.637-6.364-2.637s-4.608,0.878-6.363,2.635
			c-3.517,3.516-3.517,9.218,0,12.731l5.895,5.896l7.477,7.477c1.757,1.757,4.061,2.637,6.365,2.637s4.612-0.88,6.372-2.638
			l5.889-5.895l0.933-0.937v22.589h52.607v-0.092v-5.879c-0.961-0.307-1.876-0.765-2.715-1.365L124.857,86.869z"/>
		<path fill="#B4DCD6" d="M148.778,100.689h-4.462v-8.983c0-2.858-1.368-5.59-3.653-7.305l-0.209-0.156
			c0.78-2.175,0.088-4.685-1.879-6.099l-4.918-3.532c-0.938-0.674-2.02-0.997-3.092-0.997c-1.656,0-3.285,0.77-4.323,2.213
			c-1.71,2.384-1.167,5.705,1.216,7.414l4.92,3.533c0.931,0.667,1.999,0.985,3.061,0.985c1.116,0,2.222-0.353,3.147-1.021
			l0.205,0.154c1.508,1.131,2.404,2.928,2.404,4.811v8.983h-4.462H50.041v5.288h8.205v74.154h89.236v-74.154h8.203v-5.288H148.778z"
			/>
	</g>
</g>
<g id="Layer_2" display="none">
	<g display="inline">
		<path fill="#B4DCD6" d="M149.701,24.68h11.049v49.74h-11.049V24.68z M132.871,42.204h11.048v32.215h-11.048V42.204z M115.75,36.81
			h11.048v37.61H115.75V36.81z M98.631,48.939h11.046v25.48H98.631V48.939z M81.511,55.129h11.048v19.29H81.511V55.129z"/>
		<path fill="#B4DCD6" d="M25.781,39.915l0.955,1.534l0.622-0.999c-0.588-0.208-1.161-0.449-1.704-0.74L25.781,39.915z"/>
		<path fill="#B4DCD6" d="M36.026,41.448l0.953-1.533l0.091-0.146c-0.528,0.275-1.081,0.509-1.649,0.706L36.026,41.448z"/>
		<path fill="#B4DCD6" d="M58.19,43.45l2.292-2.292c0.386-0.388,0.804-0.73,1.235-1.053V16.163h114.785v65.143H61.716v-11.34
			c-1.124,0.372-2.309,0.574-3.528,0.574c-0.901,0-1.78-0.123-2.635-0.329v17.257h127.109V10H55.554v30.844
			c0.112,0.105,0.232,0.202,0.341,0.312L58.19,43.45z"/>
		<circle fill="#B4DCD6" cx="94.113" cy="105.145" r="11.924"/>
		<path fill="#B4DCD6" d="M117.09,128.359v-3.561c0-3.705-3.004-6.708-6.707-6.708c-0.008,0-0.014,0-0.023,0l0,0H77.869v0.003
			c-0.022,0-0.042-0.003-0.061-0.003c-3.708,0-6.71,3.003-6.71,6.708v3.553c7.602,0.986,13.497,7.487,13.497,15.354
			c0,2.817-0.766,5.454-2.085,7.732h23.208c-1.316-2.278-2.085-4.915-2.085-7.732C103.632,135.854,109.508,129.361,117.09,128.359z"
			/>
		<circle fill="#B4DCD6" cx="144.146" cy="105.145" r="11.924"/>
		<path fill="#B4DCD6" d="M167.121,128.359v-3.561c0-3.705-3.002-6.708-6.707-6.708c-0.006,0-0.016,0-0.022,0l0,0h-32.493v0.003
			c-0.02,0-0.038-0.003-0.059-0.003c-3.707,0-6.71,3.003-6.71,6.708v3.553c7.601,0.986,13.498,7.487,13.498,15.354
			c0,2.817-0.768,5.454-2.087,7.732h23.21c-1.319-2.278-2.086-4.915-2.086-7.732C153.665,135.854,159.54,129.363,167.121,128.359z"
			/>
		<circle fill="#B4DCD6" cx="69.098" cy="143.705" r="11.923"/>
		<path fill="#B4DCD6" d="M69.05,156.652h-8.45h-7.751v0.002c-0.019,0-0.039-0.002-0.059-0.002c-3.706,0-6.71,3.002-6.71,6.709
			c0,0.172,0,0.326,0,0.496c0,14.109,0,18.885,0,18.94c0,0.169,0,0.321,0,0.491c0,3.705,3.004,6.711,6.71,6.711
			c0.02,0,0.04-0.004,0.059-0.004V190h32.494v-0.001c0.009,0,0.017,0.001,0.024,0.001c3.703,0,6.706-3.006,6.706-6.711
			c0-0.168,0-0.316,0-0.481c0-14.138,0-18.923,0-18.976c0-0.16,0-0.307,0-0.471c0-3.707-3.003-6.709-6.706-6.709
			c-0.007,0-0.015,0.001-0.024,0.001v-0.001h-7.748H69.05z"/>
		<circle fill="#B4DCD6" cx="119.129" cy="143.705" r="11.924"/>
		<path fill="#B4DCD6" d="M119.098,156.652h-8.466h-7.749v0.002c-0.021,0-0.039-0.002-0.06-0.002c-3.705,0-6.709,3.002-6.709,6.709
			c0,0.172,0,0.326,0,0.496c0,14.109,0,18.885,0,18.94c0,0.169,0,0.321,0,0.491c0,3.705,3.004,6.711,6.709,6.711
			c0.021,0,0.039-0.004,0.06-0.004V190h32.494v-0.001c0.008,0,0.016,0.001,0.021,0.001c3.704,0,6.708-3.006,6.708-6.711
			c0-0.168,0-0.316,0-0.481c0-14.138,0-18.923,0-18.976c0-0.16,0-0.307,0-0.471c0-3.707-3.004-6.709-6.708-6.709
			c-0.005,0-0.013,0.001-0.021,0.001v-0.001h-7.749H119.098z"/>
		<circle fill="#B4DCD6" cx="169.162" cy="143.705" r="11.924"/>
		<path fill="#B4DCD6" d="M185.429,156.652c-0.005,0-0.011,0.001-0.021,0.001v-0.001h-7.751h-8.526h-8.465h-7.751v0.002
			c-0.021,0-0.039-0.002-0.061-0.002c-3.704,0-6.71,3.002-6.71,6.709c0,0.172,0,0.326,0,0.496c0,14.109,0,18.885,0,18.94
			c0,0.169,0,0.321,0,0.491c0,3.705,3.006,6.711,6.71,6.711c0.021,0,0.04-0.004,0.061-0.004V190h32.493v-0.001
			c0.01,0,0.016,0.001,0.021,0.001c3.708,0,6.71-3.006,6.71-6.711c0-0.168,0-0.316,0-0.481c0-14.138,0-18.923,0-18.976
			c0-0.16,0-0.307,0-0.471C192.139,159.654,189.137,156.652,185.429,156.652z"/>
		<path fill="#B4DCD6" d="M22.099,42.204h-7.353c-3.803,0-6.884,3.085-6.884,6.888v6.375v20.701v6.375
			c0,3.805,3.081,6.887,6.884,6.887v42.91c0,4.223,3.42,7.642,7.639,7.642c4.221,0,7.641-3.419,7.641-7.642V89.429h2.79v42.956
			c0,4.219,3.42,7.641,7.641,7.641s7.641-3.422,7.641-7.641V89.429v-8.372V58.962l0.713,0.716l4.505,4.508
			c1.346,1.344,3.109,2.017,4.872,2.017c1.762,0,3.525-0.672,4.869-2.016l5.718-5.719l4.508-4.509c2.69-2.687,2.69-7.048,0-9.738
			c-1.343-1.343-3.105-2.015-4.866-2.015c-1.762,0-3.526,0.672-4.869,2.018l-3.491,3.489l-1.018,1.019l-0.852,0.85l-5.358-5.36
			c-1.311-1.309-3.019-1.97-4.732-2.003v-0.014h-7.437l-4.635,7.455l-4.637-7.455h-0.018l-4.638,7.455L22.099,42.204z"/>
		<path fill="#B4DCD6" d="M27.357,40.451c1.273,0.449,2.637,0.706,4.065,0.706c1.403,0,2.744-0.247,3.999-0.682
			c0.568-0.197,1.122-0.431,1.649-0.706c0.98-0.511,1.877-1.154,2.679-1.9c2.4-2.234,3.91-5.412,3.91-8.949
			c0-6.759-5.478-12.238-12.236-12.238c-6.758,0-12.238,5.479-12.238,12.238c0,3.537,1.51,6.715,3.911,8.949
			c0.77,0.716,1.624,1.342,2.559,1.843C26.197,40.001,26.769,40.243,27.357,40.451z"/>
		<rect x="81.511" y="55.129" fill="#B4DCD6" width="11.048" height="19.29"/>
		<rect x="98.631" y="48.939" fill="#B4DCD6" width="11.046" height="25.48"/>
		<rect x="115.75" y="36.81" fill="#B4DCD6" width="11.048" height="37.61"/>
		<rect x="132.871" y="42.204" fill="#B4DCD6" width="11.048" height="32.215"/>
		<rect x="149.701" y="24.68" fill="#B4DCD6" width="11.049" height="49.74"/>
	</g>
</g>
<g id="Layer_3" display="none">
	<g display="inline">
		<path fill="#B4DCD6" d="M101.476,52.319h18.878v-8.869v-5.499c0-3.281-2.656-5.939-5.934-5.939c-0.007,0-0.014,0.002-0.021,0.002
			v-0.002h-6.414l-3.996,6.429l-3.967-6.38c0,0-0.002,0-0.004,0c-0.024,0-0.047-0.004-0.071-0.004l-3.97,6.384l-3.993-6.429h-6.346
			v0.002c-0.017,0-0.033-0.002-0.052-0.002c-3.279,0-5.938,2.658-5.938,5.939v5.499v8.869h18.88H101.476z"/>
		<path fill="#B4DCD6" d="M100.017,31.109c5.833,0,10.559-4.725,10.559-10.554S105.85,10,100.017,10
			c-5.826,0-10.551,4.726-10.551,10.555S94.191,31.109,100.017,31.109z"/>
		<path fill="#B4DCD6" d="M142.484,40.802c0.416,0.216,0.852,0.4,1.297,0.554c0.98,0.34,2.031,0.534,3.131,0.534
			c1.121,0,2.188-0.201,3.187-0.552c0.46-0.163,0.91-0.352,1.335-0.58c0.732-0.394,1.402-0.884,2.004-1.444
			c1.883-1.751,3.066-4.242,3.066-7.014c0-5.296-4.293-9.59-9.592-9.59c-5.297,0-9.588,4.293-9.588,9.59
			c0,2.772,1.184,5.263,3.062,7.014C141.016,39.899,141.719,40.403,142.484,40.802z"/>
		<path fill="#B4DCD6" d="M157.402,59.083c-1.422-1.386-4.435-3.4-4.435-8.837c0-2.729,0.934-5.239,2.484-7.249
			c-0.672-0.187-1.37-0.305-2.089-0.326c-0.047,0-0.092-0.015-0.139-0.015h-0.117h-1.615l-4.979,9.81l-1.346-9.602l-3.32,8.77
			l-1.954-8.607c-4.038,1.191-7.071,5.217-7.364,10.111c-0.092,0.329-0.153,0.606-0.153,0.781v0.136l16.047,14.994
			C149.281,64.646,152.241,59.751,157.402,59.083z"/>
		<path fill="#B4DCD6" d="M158.333,57.26c0.627,0.586,1.329,1.089,2.099,1.489c0.414,0.215,0.846,0.398,1.291,0.553
			c0.983,0.341,2.035,0.535,3.135,0.535c1.118,0,2.188-0.202,3.184-0.553c0.461-0.162,0.912-0.352,1.338-0.58
			c0.731-0.393,1.403-0.884,2.004-1.444c1.885-1.751,3.065-4.242,3.065-7.013c0-5.296-4.296-9.59-9.591-9.59
			c-5.297,0-9.586,4.294-9.586,9.59C155.271,53.018,156.452,55.509,158.333,57.26z"/>
		<path fill="#B4DCD6" d="M174.33,61.26c-0.95-0.381-1.964-0.611-3.021-0.641c-0.048-0.001-0.09-0.015-0.137-0.015h-0.119h-1.614
			l-4.981,9.81l-1.343-9.603l-3.321,8.77l-1.953-8.607c-4.01,1.182-7.02,5.159-7.35,10.006l16.781,15.683
			c1.117-4.118,4.076-8.365,8.699-9.049c-1.357-1.302-4.391-3.293-4.391-8.756C171.58,65.971,172.613,63.322,174.33,61.26z"/>
		<path fill="#B4DCD6" d="M176.945,75.871c0.627,0.585,1.329,1.089,2.098,1.488c0.414,0.215,0.846,0.399,1.291,0.553
			c0.982,0.341,2.035,0.535,3.136,0.535c1.117,0,2.188-0.201,3.185-0.553c0.46-0.163,0.91-0.352,1.334-0.58
			c0.733-0.393,1.402-0.883,2.006-1.444c1.882-1.752,3.065-4.242,3.065-7.014c0-5.297-4.295-9.591-9.59-9.591
			c-5.3,0-9.588,4.294-9.588,9.591C173.882,71.629,175.062,74.119,176.945,75.871z"/>
		<path fill="#B4DCD6" d="M199.504,89.696c-0.346-5.758-4.477-10.318-9.584-10.466c-0.048-0.001-0.09-0.015-0.137-0.015h-0.119
			h-1.614l-4.981,9.81l-1.343-9.603l-3.322,8.77l-1.952-8.607c-3.703,1.091-6.531,4.575-7.209,8.917l20.594,19.245l3.761,3.513
			l4.091,0.151c1.086,0,1.971-0.88,1.971-1.968V90.476C199.658,90.301,199.596,90.023,199.504,89.696z"/>
		<path fill="#B4DCD6" d="M48.567,40.759c0.424,0.228,0.874,0.417,1.334,0.58c1,0.351,2.065,0.552,3.187,0.552
			c1.099,0,2.15-0.194,3.131-0.534c0.445-0.154,0.881-0.338,1.296-0.554c0.766-0.399,1.469-0.903,2.098-1.488
			c1.878-1.751,3.062-4.242,3.062-7.014c0-5.296-4.291-9.59-9.587-9.59c-5.299,0-9.592,4.293-9.592,9.59
			c0,2.772,1.184,5.263,3.067,7.014C47.164,39.875,47.833,40.365,48.567,40.759z"/>
		<path fill="#B4DCD6" d="M58.152,51.635l-3.318-8.77l-1.347,9.602l-4.979-9.81h-1.615h-0.118c-0.047,0-0.092,0.014-0.139,0.015
			c-0.719,0.021-1.417,0.139-2.088,0.326c1.551,2.009,2.485,4.52,2.485,7.249c0,5.437-3.013,7.451-4.435,8.837
			c5.16,0.667,8.121,5.562,8.979,9.965l16.047-14.994V53.92c0-0.175-0.061-0.453-0.153-0.781c-0.292-4.894-3.327-8.92-7.365-10.111
			L58.152,51.635z"/>
		<path fill="#B4DCD6" d="M30.621,58.704c0.426,0.228,0.877,0.417,1.339,0.58c0.995,0.351,2.065,0.553,3.183,0.553
			c1.101,0,2.152-0.194,3.135-0.535c0.445-0.154,0.877-0.337,1.292-0.553c0.768-0.4,1.471-0.903,2.099-1.489
			c1.881-1.751,3.062-4.242,3.062-7.013c0-5.296-4.291-9.59-9.587-9.59c-5.295,0-9.59,4.294-9.59,9.59
			c0,2.771,1.181,5.262,3.064,7.013C29.218,57.82,29.89,58.311,30.621,58.704z"/>
		<path fill="#B4DCD6" d="M42.159,60.974l-1.952,8.607l-3.321-8.77l-1.344,9.603l-4.981-9.81h-1.615h-0.118
			c-0.047,0-0.089,0.014-0.136,0.015c-1.059,0.03-2.072,0.26-3.023,0.641c1.717,2.062,2.751,4.711,2.751,7.598
			c0,5.463-3.034,7.454-4.392,8.756c4.624,0.684,7.582,4.93,8.699,9.048L49.51,70.979C49.18,66.133,46.169,62.156,42.159,60.974z"/>
		<path fill="#B4DCD6" d="M12.011,77.315c0.424,0.228,0.875,0.417,1.334,0.58c0.997,0.352,2.067,0.553,3.185,0.553
			c1.101,0,2.152-0.194,3.135-0.535c0.446-0.154,0.877-0.338,1.292-0.553c0.769-0.399,1.471-0.903,2.098-1.488
			c1.881-1.752,3.062-4.242,3.062-7.014c0-5.297-4.288-9.591-9.587-9.591c-5.295,0-9.59,4.294-9.59,9.591
			c0,2.772,1.183,5.262,3.064,7.014C10.609,76.432,11.278,76.922,12.011,77.315z"/>
		<path fill="#B4DCD6" d="M23.548,79.585l-1.952,8.607l-3.321-8.77l-1.344,9.603l-4.981-9.81h-1.615h-0.118
			c-0.047,0-0.089,0.014-0.137,0.015c-5.108,0.148-9.239,4.708-9.585,10.466c-0.092,0.327-0.153,0.604-0.153,0.78v18.967
			c0,1.088,0.884,1.968,1.971,1.968l4.088-0.151l3.76-3.513l20.597-19.246C30.081,84.159,27.252,80.676,23.548,79.585z"/>
		<path fill="#B4DCD6" d="M128.613,57.147h-27.138h-2.949h-27.14l-57.927,54.127h0.074v4.96h53.016
			c-0.552-0.377-1.074-0.803-1.556-1.285l-10.464-10.465c-2.013-2.012-3.121-4.689-3.121-7.542c0-2.852,1.108-5.531,3.121-7.545
			c2.014-2.015,4.693-3.125,7.543-3.125c2.852,0,5.53,1.11,7.542,3.125l2.922,2.923l2.923-2.922
			c2.014-2.014,4.693-3.124,7.542-3.126h4.399c-2.234-2.829-3.478-6.339-3.478-9.976c0-8.901,7.242-16.144,16.143-16.144
			c8.903,0,16.146,7.243,16.146,16.144c0,3.636-1.243,7.146-3.479,9.976l4.574,0.013l2.56,0.388c1.761,0.487,3.375,1.429,4.67,2.724
			l2.924,2.923l2.921-2.921c2.015-2.016,4.694-3.125,7.546-3.125c2.849,0,5.525,1.109,7.539,3.124
			c2.016,2.015,3.125,4.693,3.125,7.543s-1.109,5.53-3.123,7.543l-10.467,10.465c-0.482,0.482-1.004,0.909-1.556,1.285h53.021v-4.96
			h0.074L128.613,57.147z"/>
		<rect x="19.364" y="119.66" fill="#B4DCD6" width="60.019" height="41.232"/>
		<rect x="120.752" y="119.66" fill="#B4DCD6" width="59.885" height="41.232"/>
		<circle fill="#B4DCD6" cx="100.07" cy="76.297" r="12.524"/>
		<path fill="#B4DCD6" d="M122.478,112.389c2.753,2.752,7.216,2.752,9.967,0.001l5.854-5.853l4.612-4.613
			c2.752-2.751,2.752-7.214-0.001-9.966c-2.749-2.752-7.214-2.75-9.965,0.001l-4.614,4.613l1.045-1.042l-1.911,1.912l-5.483-5.484
			c-1.344-1.341-3.091-2.017-4.847-2.051v-0.013H83.006v0.001c-1.804,0-3.606,0.688-4.984,2.064l-3.571,3.571l-1.042,1.042
			l-0.87,0.87l-5.483-5.484c-2.751-2.753-7.214-2.75-9.964,0c-2.751,2.752-2.753,7.213,0,9.966l5.854,5.852l4.611,4.613
			c2.753,2.752,7.216,2.752,9.967,0.001l5.483-5.483v22.707v8.608v43.914c0,4.319,3.498,7.819,7.814,7.819
			c4.319,0,7.819-3.5,7.819-7.819v-43.914h2.857v43.959c0,4.317,3.498,7.819,7.817,7.819c4.318,0,7.819-3.502,7.819-7.819v-43.959
			v-8.566v-22.612l0.732,0.732L122.478,112.389z"/>
	</g>
</g>
</svg>
